<svg width="140" height="30" viewBox="0 0 140 30" fill="none" xmlns="http://www.w3.org/2000/svg">
<rect width="140" height="30" rx="3" fill="black"/>
<path d="M44.8651 14.0298C44.7827 13.7713 44.6719 13.5398 44.5327 13.3352C44.3963 13.1278 44.233 12.9517 44.0426 12.8068C43.8523 12.6591 43.6349 12.5469 43.3906 12.4702C43.1491 12.3935 42.8835 12.3551 42.5938 12.3551C42.1023 12.3551 41.6591 12.4815 41.2642 12.7344C40.8693 12.9872 40.5568 13.358 40.3267 13.8466C40.0994 14.3324 39.9858 14.9276 39.9858 15.6321C39.9858 16.3395 40.1009 16.9375 40.331 17.4261C40.5611 17.9148 40.8764 18.2855 41.277 18.5384C41.6776 18.7912 42.1335 18.9176 42.6449 18.9176C43.1193 18.9176 43.5327 18.821 43.8849 18.6278C44.2401 18.4347 44.5142 18.1619 44.7074 17.8097C44.9034 17.4545 45.0014 17.0369 45.0014 16.5568L45.3423 16.6207H42.8452V15.5341H46.2756V16.527C46.2756 17.2599 46.1193 17.8963 45.8068 18.4361C45.4972 18.973 45.0682 19.3878 44.5199 19.6804C43.9744 19.973 43.3494 20.1193 42.6449 20.1193C41.8551 20.1193 41.1619 19.9375 40.5653 19.5739C39.9716 19.2102 39.5085 18.6946 39.1761 18.027C38.8438 17.3565 38.6776 16.5611 38.6776 15.6406C38.6776 14.9446 38.7741 14.3196 38.9673 13.7656C39.1605 13.2116 39.4318 12.7415 39.7812 12.3551C40.1335 11.9659 40.5469 11.669 41.0213 11.4645C41.4986 11.2571 42.0199 11.1534 42.5852 11.1534C43.0568 11.1534 43.4957 11.223 43.902 11.3622C44.3111 11.5014 44.6747 11.6989 44.9929 11.9545C45.3139 12.2102 45.5795 12.5142 45.7898 12.8665C46 13.2159 46.142 13.6037 46.2159 14.0298H44.8651ZM48.255 20V13.4545H49.5291V20H48.255ZM48.8984 12.4446C48.6768 12.4446 48.4865 12.3707 48.3274 12.223C48.1712 12.0724 48.093 11.8935 48.093 11.6861C48.093 11.4759 48.1712 11.2969 48.3274 11.1491C48.4865 10.9986 48.6768 10.9233 48.8984 10.9233C49.12 10.9233 49.3089 10.9986 49.4652 11.1491C49.6243 11.2969 49.7038 11.4759 49.7038 11.6861C49.7038 11.8935 49.6243 12.0724 49.4652 12.223C49.3089 12.3707 49.12 12.4446 48.8984 12.4446ZM54.2987 13.4545V14.4773H50.7234V13.4545H54.2987ZM51.6822 11.8864H52.9563V18.0781C52.9563 18.3253 52.9933 18.5114 53.0671 18.6364C53.141 18.7585 53.2362 18.8423 53.3526 18.8878C53.4719 18.9304 53.6012 18.9517 53.7404 18.9517C53.8427 18.9517 53.9322 18.9446 54.0089 18.9304C54.0856 18.9162 54.1452 18.9048 54.1879 18.8963L54.418 19.9489C54.3441 19.9773 54.239 20.0057 54.1026 20.0341C53.9663 20.0653 53.7958 20.0824 53.5913 20.0852C53.256 20.0909 52.9435 20.0312 52.6538 19.9062C52.364 19.7812 52.1296 19.5881 51.9506 19.3267C51.7717 19.0653 51.6822 18.7372 51.6822 18.3423V11.8864ZM55.951 20V11.2727H57.2678V15.0653H61.6186V11.2727H62.9396V20H61.6186V16.1946H57.2678V20H55.951ZM68.9013 17.2855V13.4545H70.1797V20H68.9268V18.8665H68.8587C68.7081 19.2159 68.4666 19.5071 68.1342 19.7401C67.8047 19.9702 67.3942 20.0852 66.9027 20.0852C66.4822 20.0852 66.1101 19.9929 65.7862 19.8082C65.4652 19.6207 65.2124 19.3438 65.0277 18.9773C64.8459 18.6108 64.755 18.1577 64.755 17.6179V13.4545H66.0291V17.4645C66.0291 17.9105 66.1527 18.2656 66.3999 18.5298C66.647 18.794 66.968 18.9261 67.3629 18.9261C67.6016 18.9261 67.8388 18.8665 68.0746 18.7472C68.3132 18.6278 68.5107 18.4474 68.6669 18.206C68.826 17.9645 68.9041 17.6577 68.9013 17.2855ZM71.994 20V11.2727H73.2681V14.5156H73.3448C73.4187 14.3793 73.5252 14.2216 73.6644 14.0426C73.8036 13.8636 73.9968 13.7074 74.244 13.5739C74.4911 13.4375 74.8178 13.3693 75.2241 13.3693C75.7525 13.3693 76.2241 13.5028 76.6388 13.7699C77.0536 14.0369 77.3789 14.4219 77.6147 14.9247C77.8533 15.4276 77.9727 16.0327 77.9727 16.7401C77.9727 17.4474 77.8548 18.054 77.619 18.5597C77.3832 19.0625 77.0593 19.4503 76.6474 19.723C76.2354 19.9929 75.7653 20.1278 75.2369 20.1278C74.8391 20.1278 74.5138 20.0611 74.261 19.9276C74.011 19.794 73.815 19.6378 73.6729 19.4588C73.5309 19.2798 73.4215 19.1207 73.3448 18.9815H73.2383V20H71.994ZM73.2425 16.7273C73.2425 17.1875 73.3093 17.5909 73.4428 17.9375C73.5763 18.2841 73.7695 18.5554 74.0224 18.7514C74.2752 18.9446 74.5849 19.0412 74.9513 19.0412C75.332 19.0412 75.6502 18.9403 75.9059 18.7386C76.1616 18.5341 76.3548 18.2571 76.4854 17.9077C76.619 17.5582 76.6857 17.1648 76.6857 16.7273C76.6857 16.2955 76.6204 15.9077 76.4897 15.5639C76.3619 15.2202 76.1687 14.9489 75.9102 14.75C75.6545 14.5511 75.3349 14.4517 74.9513 14.4517C74.582 14.4517 74.2695 14.5469 74.0138 14.7372C73.761 14.9276 73.5692 15.1932 73.4386 15.5341C73.3079 15.875 73.2425 16.2727 73.2425 16.7273ZM79.1469 18.776H88.9749V19.604H79.1469V18.776ZM83.5389 16.448H84.5349V19.124H83.5389V16.448ZM80.3349 10.892H87.7629V14.18H81.3549V16.352H80.3709V13.376H86.7789V11.696H80.3349V10.892ZM80.3709 15.932H88.0149V16.748H80.3709V15.932ZM93.3617 18.776H103.19V19.604H93.3617V18.776ZM97.7537 16.448H98.7497V19.124H97.7537V16.448ZM94.5497 10.892H101.978V14.18H95.5697V16.352H94.5857V13.376H100.994V11.696H94.5497V10.892ZM94.5857 15.932H102.23V16.748H94.5857V15.932ZM105.457 11.24H112.441V12.044H105.457V11.24ZM104.401 18.524H114.205V19.352H104.401V18.524ZM111.913 11.24H112.885V12.32C112.885 13.712 112.885 15.26 112.477 17.6L111.481 17.504C111.913 15.284 111.913 13.664 111.913 12.32V11.24ZM123.324 10.1H124.332V18.02H123.324V10.1ZM117.36 19.88H124.656V20.696H117.36V19.88ZM117.36 17.204H118.344V20.156H117.36V17.204ZM118.512 10.844C120.132 10.844 121.332 11.948 121.332 13.52C121.332 15.08 120.132 16.196 118.512 16.196C116.892 16.196 115.68 15.08 115.68 13.52C115.68 11.948 116.892 10.844 118.512 10.844ZM118.512 11.708C117.456 11.708 116.652 12.452 116.652 13.52C116.652 14.576 117.456 15.32 118.512 15.32C119.568 15.32 120.372 14.576 120.372 13.52C120.372 12.452 119.568 11.708 118.512 11.708Z" fill="white"/>
<path fill-rule="evenodd" clip-rule="evenodd" d="M22.0066 7C17.5792 7 14 10.6667 14 15.2028C14 18.8288 16.2933 21.8981 19.4747 22.9844C19.8725 23.0661 20.0182 22.8079 20.0182 22.5908C20.0182 22.4006 20.005 21.7488 20.005 21.0696C17.7778 21.5586 17.314 20.0918 17.314 20.0918C16.9561 19.1411 16.4257 18.8968 16.4257 18.8968C15.6967 18.3943 16.4788 18.3943 16.4788 18.3943C17.2874 18.4486 17.7118 19.2363 17.7118 19.2363C18.4275 20.4856 19.5807 20.1326 20.0447 19.9153C20.1109 19.3856 20.3232 19.0189 20.5485 18.8153C18.7721 18.6251 16.9031 17.919 16.9031 14.7681C16.9031 13.8718 17.2211 13.1385 17.7249 12.5681C17.6454 12.3645 17.3669 11.5223 17.8045 10.3952C17.8045 10.3952 18.4806 10.1778 20.0049 11.2371C20.6575 11.0576 21.3305 10.9663 22.0066 10.9655C22.6827 10.9655 23.3718 11.0606 24.0082 11.2371C25.5327 10.1778 26.2087 10.3952 26.2087 10.3952C26.6463 11.5223 26.3677 12.3645 26.2882 12.5681C26.8053 13.1385 27.1101 13.8718 27.1101 14.7681C27.1101 17.919 25.2411 18.6115 23.4515 18.8153C23.7432 19.0733 23.9949 19.5621 23.9949 20.3363C23.9949 21.4363 23.9818 22.3191 23.9818 22.5906C23.9818 22.8079 24.1277 23.0661 24.5253 22.9846C27.7067 21.8979 30 18.8288 30 15.2028C30.0131 10.6667 26.4208 7 22.0066 7Z" fill="white"/>
</svg>
